<svg width="311" height="64" viewBox="0 0 311 64" fill="none" xmlns="http://www.w3.org/2000/svg">
<path d="M105.678 24.7856C104.951 23.2271 103.912 22.0323 102.562 21.1492C101.159 20.2661 99.4456 19.7985 97.3681 19.7985C95.3946 19.7985 93.7326 20.2141 92.3823 20.9933C91.032 21.8245 89.9933 22.8635 89.2142 24.1103V20.4219H83.761V46.3963H89.37V34.1364C89.37 32.8896 89.4739 31.6948 89.6817 30.6039C89.8894 29.5129 90.2529 28.5779 90.7723 27.7467C91.2917 26.9155 91.9668 26.2921 92.7978 25.8246C93.6288 25.357 94.7194 25.0973 96.0178 25.0973C97.7836 25.0973 99.1339 25.6687 100.069 26.7077C101.004 27.7986 101.471 29.3571 101.471 31.435V46.3963H107.08V34.1364C107.08 32.8896 107.184 31.6948 107.392 30.5519C107.599 29.461 108.015 28.5259 108.534 27.6947C109.054 26.9155 109.729 26.2921 110.56 25.8246C111.391 25.357 112.481 25.0973 113.78 25.0973C115.546 25.0973 116.896 25.6687 117.831 26.7077C118.714 27.7986 119.181 29.3571 119.181 31.435V46.3963H124.842V31.0195C124.842 27.5908 124.011 24.8895 122.349 22.8635C120.687 20.8375 118.246 19.7985 114.922 19.7985C112.585 19.7985 110.664 20.2661 109.209 21.2011C107.755 22.1362 106.561 23.331 105.678 24.7856Z" fill="#3B3F4A"/>
<path d="M129.72 33.513C129.72 35.539 130.032 37.3572 130.655 39.0196C131.278 40.6819 132.213 42.0846 133.355 43.2794C134.498 44.4742 135.952 45.4093 137.614 46.0327C139.276 46.708 141.198 47.0197 143.275 47.0197C145.716 47.0197 147.794 46.6041 149.507 45.7729C151.169 44.9417 152.572 43.9547 153.662 42.9157L151.014 38.3962C150.079 39.3313 148.988 40.1624 147.742 40.7858C146.443 41.4612 144.937 41.7729 143.223 41.7729C142.288 41.7729 141.354 41.669 140.471 41.3573C139.588 41.0975 138.809 40.6819 138.082 40.1624C137.355 39.643 136.783 38.9157 136.316 38.0845C135.848 37.2533 135.537 36.3182 135.433 35.1754V35.1234H155.376V33.513C155.376 31.5389 155.065 29.6688 154.545 28.0064C153.974 26.3441 153.143 24.8895 152.104 23.6427C151.014 22.4479 149.663 21.5128 148.105 20.8375C146.547 20.1622 144.729 19.7985 142.756 19.7985C140.73 19.7985 138.913 20.1622 137.303 20.8894C135.693 21.6167 134.342 22.5518 133.2 23.7986C132.057 25.0453 131.226 26.4999 130.603 28.1623C129.98 29.8246 129.72 31.6428 129.72 33.513ZM149.248 30.8636H135.485C135.796 28.9935 136.576 27.5389 137.77 26.448C138.913 25.357 140.575 24.7856 142.652 24.7856C144.677 24.7856 146.236 25.357 147.326 26.4999C148.417 27.6428 149.04 29.0974 149.248 30.8636Z" fill="#3B3F4A"/>
<path d="M181.908 24.7856C181.181 23.2271 180.142 22.0323 178.791 21.1492C177.389 20.2661 175.675 19.7985 173.598 19.7985C171.624 19.7985 169.962 20.2141 168.612 20.9933C167.262 21.8245 166.223 22.8635 165.444 24.1103V20.4219H159.991V46.3963H165.6V34.1364C165.6 32.8896 165.704 31.6948 165.911 30.6039C166.119 29.5129 166.483 28.5779 167.002 27.7467C167.521 26.9155 168.197 26.2921 169.028 25.8246C169.859 25.357 170.949 25.0973 172.248 25.0973C174.013 25.0973 175.364 25.6687 176.299 26.7077C177.233 27.7986 177.701 29.3571 177.701 31.435V46.3963H183.31V34.1364C183.31 32.8896 183.414 31.6948 183.622 30.5519C183.829 29.461 184.245 28.5259 184.764 27.6947C185.283 26.9155 185.959 26.2921 186.79 25.8246C187.621 25.357 188.711 25.0973 190.01 25.0973C191.775 25.0973 193.126 25.6687 194.061 26.7077C194.943 27.7986 195.411 29.3571 195.411 31.435V46.3963H201.072V31.0195C201.072 27.5908 200.241 24.8895 198.579 22.8635C196.917 20.8375 194.476 19.7985 191.152 19.7985C188.815 19.7985 186.893 20.2661 185.439 21.2011C183.985 22.1362 182.791 23.331 181.908 24.7856Z" fill="#3B3F4A"/>
<path d="M205.95 33.4091C205.95 35.3832 206.261 37.2533 206.988 38.9157C207.664 40.578 208.598 42.0326 209.845 43.2274C211.091 44.4223 212.546 45.3573 214.208 46.0327C215.869 46.708 217.739 47.0197 219.713 47.0197C221.686 47.0197 223.504 46.708 225.166 46.0327C226.828 45.3573 228.282 44.4223 229.529 43.2274C230.775 42.0326 231.71 40.578 232.437 38.9157C233.112 37.2533 233.476 35.3832 233.476 33.4091C233.476 31.435 233.112 29.6168 232.437 27.9545C231.71 26.2921 230.775 24.8375 229.529 23.6427C228.282 22.4479 226.828 21.5128 225.166 20.8375C223.504 20.1622 221.686 19.7985 219.713 19.7985C217.739 19.7985 215.869 20.1622 214.208 20.8375C212.546 21.5128 211.091 22.4479 209.845 23.6427C208.598 24.8375 207.664 26.2921 206.988 27.9545C206.261 29.6168 205.95 31.435 205.95 33.4091ZM227.711 33.4091C227.711 34.6559 227.503 35.7468 227.088 36.7338C226.672 37.7728 226.153 38.604 225.426 39.3313C224.699 40.0586 223.868 40.578 222.933 40.9936C221.946 41.4092 220.855 41.5651 219.713 41.5651C218.518 41.5651 217.428 41.4092 216.493 40.9936C215.506 40.578 214.675 40.0586 213.948 39.3313C213.221 38.604 212.701 37.7728 212.286 36.7338C211.87 35.7468 211.715 34.6559 211.715 33.4091C211.715 32.2143 211.87 31.1234 212.286 30.0844C212.701 29.0974 213.221 28.2662 213.948 27.5389C214.675 26.8116 215.506 26.2921 216.493 25.8765C217.428 25.4609 218.518 25.2531 219.713 25.2531C220.855 25.2531 221.946 25.4609 222.933 25.8765C223.868 26.2921 224.699 26.8116 225.426 27.5389C226.153 28.2662 226.672 29.0974 227.088 30.0844C227.503 31.1234 227.711 32.2143 227.711 33.4091Z" fill="#3B3F4A"/>
<path d="M250.037 25.1492C252.323 25.1492 254.192 25.9285 255.647 27.383C257.101 28.8896 257.828 30.9156 257.828 33.4091C257.828 35.9546 257.101 37.9806 255.647 39.4352C254.192 40.9417 252.323 41.669 250.037 41.669C247.648 41.669 245.779 40.9417 244.376 39.3832C242.922 37.8767 242.247 35.9026 242.247 33.4091C242.247 30.9675 242.922 28.9935 244.376 27.435C245.779 25.9285 247.648 25.1492 250.037 25.1492ZM263.177 10.0321H257.568V24.1622C256.529 22.9154 255.335 21.8765 253.881 21.0453C252.427 20.2141 250.661 19.7985 248.583 19.7985C246.921 19.7985 245.311 20.1102 243.857 20.7336C242.403 21.357 241.105 22.2401 240.014 23.383C238.923 24.5778 238.04 26.0324 237.417 27.6947C236.794 29.3571 236.482 31.2792 236.482 33.4091C236.482 35.591 236.794 37.5131 237.417 39.1754C238.04 40.8378 238.923 42.2924 240.014 43.4352C241.105 44.5781 242.403 45.4612 243.857 46.0846C245.311 46.708 246.921 47.0197 248.635 47.0197C250.661 47.0197 252.427 46.6561 253.881 45.8768C255.335 45.0976 256.581 44.0586 257.568 42.7079V46.3963H263.177V10.0321Z" fill="#3B3F4A"/>
<path d="M269.016 12.9413C269.016 14.0841 269.379 15.0192 270.158 15.7465C270.886 16.5257 271.82 16.8894 272.963 16.8894C274.054 16.8894 274.989 16.5257 275.768 15.7465C276.495 15.0192 276.91 14.0841 276.91 12.9413C276.91 11.8503 276.495 10.9153 275.768 10.136C274.989 9.40876 274.054 8.99316 272.963 8.99316C271.82 8.99316 270.886 9.40876 270.158 10.136C269.379 10.9153 269.016 11.8503 269.016 12.9413ZM275.768 20.4219H270.158V46.3963H275.768V20.4219Z" fill="#3B3F4A"/>
<path d="M280.962 33.4091C280.962 35.3832 281.274 37.2533 282.001 38.9157C282.676 40.578 283.611 42.0326 284.857 43.2274C286.104 44.4223 287.558 45.3573 289.22 46.0327C290.882 46.708 292.752 47.0197 294.725 47.0197C296.699 47.0197 298.517 46.708 300.179 46.0327C301.84 45.3573 303.295 44.4223 304.541 43.2274C305.788 42.0326 306.722 40.578 307.45 38.9157C308.125 37.2533 308.488 35.3832 308.488 33.4091C308.488 31.435 308.125 29.6168 307.45 27.9545C306.722 26.2921 305.788 24.8375 304.541 23.6427C303.295 22.4479 301.84 21.5128 300.179 20.8375C298.517 20.1622 296.699 19.7985 294.725 19.7985C292.752 19.7985 290.882 20.1622 289.22 20.8375C287.558 21.5128 286.104 22.4479 284.857 23.6427C283.611 24.8375 282.676 26.2921 282.001 27.9545C281.274 29.6168 280.962 31.435 280.962 33.4091ZM302.723 33.4091C302.723 34.6559 302.516 35.7468 302.1 36.7338C301.685 37.7728 301.165 38.604 300.438 39.3313C299.711 40.0586 298.88 40.578 297.945 40.9936C296.959 41.4092 295.868 41.5651 294.725 41.5651C293.531 41.5651 292.44 41.4092 291.505 40.9936C290.518 40.578 289.687 40.0586 288.96 39.3313C288.233 38.604 287.714 37.7728 287.298 36.7338C286.883 35.7468 286.727 34.6559 286.727 33.4091C286.727 32.2143 286.883 31.1234 287.298 30.0844C287.714 29.0974 288.233 28.2662 288.96 27.5389C289.687 26.8116 290.518 26.2921 291.505 25.8765C292.44 25.4609 293.531 25.2531 294.725 25.2531C295.868 25.2531 296.959 25.4609 297.945 25.8765C298.88 26.2921 299.711 26.8116 300.438 27.5389C301.165 28.2662 301.685 29.0974 302.1 30.0844C302.516 31.1234 302.723 32.2143 302.723 33.4091Z" fill="#3B3F4A"/>
<path fill-rule="evenodd" clip-rule="evenodd" d="M26.4863 4.41008C36.469 2.52059 47.4391 3.8668 55.0613 8.70706C62.4327 13.3881 64.2444 19.9246 64.0848 24.6053C63.8196 32.3833 57.3934 37.2914 49.2625 39.6244C50.7209 43.8879 52.0476 47.8381 53.0594 50.8742C53.6633 52.6865 54.1553 54.1738 54.4964 55.2082C54.667 55.7255 54.7998 56.1296 54.8901 56.4045C54.9352 56.542 54.9697 56.6473 54.9929 56.7182L55.0282 56.8258L55.0283 56.8261C55.0283 56.8261 55.0283 56.8263 52.7264 57.5818L55.0283 56.8263C55.387 57.9231 54.925 59.1213 53.9236 59.6917C52.9222 60.2622 51.6583 60.0471 50.901 59.1773C47.1906 54.9158 42.2339 54.9403 35.1254 55.3521C34.8971 55.3653 34.667 55.3789 34.4353 55.3925C27.7554 55.786 19.6535 56.2633 11.8101 51.3886C2.45453 45.5741 -3.3675 32.694 2.45261 20.6726C6.86583 11.5572 16.5079 6.29877 26.4863 4.41008ZM48.1792 51.5573C47.1782 48.5594 45.9151 44.8061 44.5416 40.7952C38.0848 42.2845 31.7691 42.7919 26.6935 41.888C23.8607 41.3835 21.2523 40.4107 19.2367 38.7668C17.1635 37.0759 15.8298 34.76 15.5071 31.8797C15.0022 27.3718 17.4681 23.9692 20.2058 21.7649C22.929 19.5721 26.2799 18.2392 28.6188 17.781C30.483 17.4157 33.4671 16.9844 36.3187 17.4416C39.2289 17.908 42.4502 19.4087 43.7434 23.237C44.4983 25.4719 45.1571 27.4539 45.7847 29.3419C46.429 31.2799 47.0402 33.1186 47.6885 35.0298C55.1378 32.9815 59.0846 29.0824 59.243 24.4394C59.353 21.2133 58.1764 16.4321 52.4678 12.807C46.1447 8.79169 36.5048 7.45372 27.3857 9.17976C18.2623 10.9066 10.3108 15.5634 6.8115 22.7912C2.26743 32.177 6.71911 42.5125 14.3638 47.2637C20.8855 51.317 27.6101 50.9264 34.528 50.5246C34.6338 50.5184 34.7397 50.5123 34.8456 50.5061C39.2208 50.2527 43.9199 49.9833 48.1792 51.5573ZM42.961 36.1768C37.0739 37.4872 31.6448 37.8396 27.5412 37.1088C25.2068 36.6931 23.4641 35.9558 22.2951 35.0023C21.1837 34.0959 20.4995 32.9272 20.3216 31.3384C20.0732 29.1213 21.2008 27.191 23.2406 25.5485C25.2948 23.8945 27.9052 22.8668 29.5487 22.5448C31.2614 22.2092 33.5645 21.9158 35.5535 22.2347C37.484 22.5441 38.6568 23.3199 39.1544 24.7931C39.891 26.9738 40.5458 28.9434 41.1738 30.8321C41.7781 32.6497 42.3575 34.3925 42.961 36.1768Z" fill="#3B3F4A"/>
</svg>
